# xmcd
#
# Track frame offsets: 
#        150
#        15119
#        24855
#        38294
#        47528
#        61023
#        71682
#        82345
#        96771
#        109165
#        120973
#        130108
#        141723
#        154315
#        166184
#        178776
#        190961
#        204552
#        217540
#        230450
#        240699
#        249405
#        262934
#
# Disc length: 3671 seconds
#
# Revision: 0
# Processed by: cddbd v1.5.2PL0 Copyright (c) Steve Scherf et al.
# Submitted via: ExactAudioCopyFreeDBPlugin 1.0
#
DISCID=270e5517
DTITLE=Charlie Feathers - Can't Hardly Stand It (Disc-2)
DYEAR=2009
DGENRE=Country
TTITLE0=I've Been Deceived (Demo Version)
TTITLE1=Runnin' Around (Demo Version)
TTITLE2=Defrost Your Heart (Demo Version)
TTITLE3=Runnin' Around
TTITLE4=I've Been Deceived (Alternative Take)
TTITLE5=Someday You Will Pay-The Miller Sisters (Charlie Feathers On S
TTITLE5=poons) 
TTITLE6=Defrost Your Heart (Alternative Take)
TTITLE7=A Wedding Gown Of White (Alternative Take)
TTITLE8=We're Getting Closer To Being Apart
TTITLE9=Bottle To The Baby (Sun Demo Version #1)
TTITLE10=Bottle To The Baby (Sun Demo Version #2)
TTITLE11=Frankie And Johnny (Take #2)
TTITLE12=Frankie And Johnny (Take #5)
TTITLE13=Bottle To The Baby (Sun Take #1)
TTITLE14=Bottle To The Baby (Sun Take #2)
TTITLE15=Honky Tonk Kind (Take #3)
TTITLE16=Honky Tonk Kind (Take #4)
TTITLE17=So Ashamed (Take #1)
TTITLE18=So Ashamed (Take #2)
TTITLE19=Corrine Corrina
TTITLE20=The Man In Love
TTITLE21=This Lonesome Feeling
TTITLE22=Johnny Come Listen
EXTD=
EXTT0=
EXTT1=
EXTT2=
EXTT3=
EXTT4=
EXTT5=
EXTT6=
EXTT7=
EXTT8=
EXTT9=
EXTT10=
EXTT11=
EXTT12=
EXTT13=
EXTT14=
EXTT15=
EXTT16=
EXTT17=
EXTT18=
EXTT19=
EXTT20=
EXTT21=
EXTT22=
PLAYORDER=
